<svg xmlns="http://www.w3.org/2000/svg" viewBox="0 0 1910.78 2661.74"><defs><style>.cls-1{fill:#FFFFFF;}.cls-2{fill:none;stroke:#000;stroke-linecap:round;stroke-linejoin:round;stroke-width:0.5px;}</style></defs><title>Asset 1</title><g id="Layer_2" data-name="Layer 2"><g id="Layer_1-2" data-name="Layer 1"><path class="cls-1" d="M705.93,1455.93l124.46,124.46L898,1648l57.44,57.44,57.44-57.44,67.56-67.56,125.11-125.11,125,125-125.11,125.11-125,125L1032,1878.81a108.31,108.31,0,0,1-153.16,0l-48.42-48.42-125-125L580.93,1580.93,455.87,1455.87l-125-125-.49-.49L237,1237l-31.58-31.58L32,1032a108.31,108.31,0,0,1,0-153.16L878.81,32A108.31,108.31,0,0,1,1032,32l846.84,846.84a108.31,108.31,0,0,1,0,153.16l-173.42,173.42-125-125,67.56-67.56A81.22,81.22,0,0,0,1648,898L1012.83,262.83a81.22,81.22,0,0,0-114.88,0L262.83,898a81.22,81.22,0,0,0,0,114.88l67.56,67.56,125.49,125.49,56.94,56.95,68,68h0l125,125Z"/><path class="cls-1" d="M829.91,2580.88l-45-45-80-80-45-45L32,1782.94a108.31,108.31,0,0,1,0-153.16l172.65-172.65a81.08,81.08,0,0,1,13.2,10.7l113.05,113.05-68,68a81.21,81.21,0,0,0,0,114.87l67.61,67.62,454.47,454.46,45,45,68,68.05a81,81,0,0,0,7.94,7l4.5,4.5,45,45,49.5-49.5a81,81,0,0,0,7.94-7l68-68L1581,1830.76l67-67a81.21,81.21,0,0,0,0-114.87l-193-193.05-125-125-125-125-192.08-192.08a81.24,81.24,0,0,0-114.88,0L705.87,1205.87l-125-125L878.81,782.94a108.29,108.29,0,0,1,153.16,0l297.94,297.94,125,125,50,50,75,75,298.9,298.9a108.31,108.31,0,0,1,0,153.16l-228,228-445,445-125,125-48.91,48.9a108.21,108.21,0,0,1-153.16,0Z"/><path class="cls-2" d="M1330.5,1580.28l-125.11,125.11-125,125L1032,1878.81a108.31,108.31,0,0,1-153.16,0"/><line class="cls-2" x1="1580.39" y1="1330.39" x2="1579.91" y2="1330.88"/><path class="cls-2" d="M237,1237l-31.58-31.58L32,1032a108.31,108.31,0,0,1,0-153.16L878.81,32A108.31,108.31,0,0,1,1032,32l846.84,846.84a108.31,108.31,0,0,1,0,153.16l-173.42,173.42"/><path class="cls-2" d="M512.82,1262.83l-56.94-56.95L330.39,1080.39l-67.56-67.56a81.22,81.22,0,0,1,0-114.88L898,262.83a81.22,81.22,0,0,1,114.88,0L1648,898a81.22,81.22,0,0,1,0,114.88l-67.56,67.56"/><path class="cls-2" d="M580.88,1080.88,878.81,782.94a108.29,108.29,0,0,1,153.16,0l297.94,297.94,125,125,50,50,75,75,298.9,298.9a108.31,108.31,0,0,1,0,153.16l-228,228-445,445-125,125-48.91,48.9a108.21,108.21,0,0,1-153.16,0l-48.9-48.9-45-45-80-80-45-45L32,1782.94a108.31,108.31,0,0,1,0-153.16l172.65-172.65"/><path class="cls-2" d="M911.15,2409.63c-1.79-1.17-3.55-2.41-5.26-3.74a81,81,0,0,1-7.94-7l-68-68.05-45-45L330.44,1831.41l-67.61-67.62a81.21,81.21,0,0,1,0-114.87l68-68"/><path class="cls-2" d="M705.87,1205.87,898,1013.79a81.24,81.24,0,0,1,114.88,0l192.08,192.08,125,125,125,125,193,193.05a81.21,81.21,0,0,1,0,114.87l-67,67-500.11,500.12-68,68a81,81,0,0,1-7.94,7"/><line class="cls-2" x1="830.5" y1="2580.28" x2="829.91" y2="2580.88"/><polyline class="cls-2" points="1378.81 2031.97 1080.39 2330.4 1004.89 2405.89 955.39 2455.39"/><line class="cls-2" x1="580.88" y1="1080.88" x2="705.87" y2="1205.87"/><polyline class="cls-2" points="512.82 1262.83 580.87 1330.87 580.87 1330.88 705.92 1455.93"/><polyline class="cls-2" points="705.93 1455.93 830.39 1580.39 897.95 1647.95 955.39 1705.39"/><polyline class="cls-2" points="955.39 2455.39 910.39 2410.39 905.89 2405.89 830.39 2330.39 785.39 2285.39 531.97 2031.97"/><line class="cls-2" x1="1580.39" y1="1080.39" x2="1705.39" y2="1205.39"/><path class="cls-2" d="M1504.92,1255.89a80.4,80.4,0,0,1,7.9,6.94l67.57,67.56"/><polyline class="cls-2" points="955.39 1705.39 1012.83 1647.95 1080.39 1580.39 1205.5 1455.28"/><line class="cls-2" x1="1205.5" y1="1455.28" x2="1330.5" y2="1580.28"/><line class="cls-2" x1="705.92" y1="1455.93" x2="705.93" y2="1455.93"/><polyline class="cls-2" points="236.97 1236.97 330.39 1330.39 330.88 1330.88 455.87 1455.87 580.93 1580.93 705.39 1705.39 830.39 1830.39 878.81 1878.81"/><path class="cls-2" d="M204,1456.75c.2.12.39.24.59.38a81.08,81.08,0,0,1,13.2,10.7l113.05,113.05"/></g></g></svg>